<svg width="13" height="14" viewBox="0 0 13 14" fill="none" xmlns="http://www.w3.org/2000/svg">
<path d="M6.49994 4.40454C6.24349 4.40454 6.03564 4.61239 6.03564 4.86883V10.1307C6.03564 10.3872 6.24349 10.595 6.49994 10.595C6.75638 10.595 6.96423 10.3872 6.96423 10.1307V4.86883C6.96423 4.61239 6.75638 4.40454 6.49994 4.40454Z" fill="#23C967"/>
<path d="M9.13147 7.03564H3.86957C3.61312 7.03564 3.40527 7.24349 3.40527 7.49994C3.40527 7.75638 3.61312 7.96423 3.86957 7.96423H9.13147C9.38791 7.96423 9.59576 7.75638 9.59576 7.49994C9.59576 7.24349 9.38791 7.03564 9.13147 7.03564Z" fill="#23C967"/>
<path d="M6.5 1C2.91586 1 0 3.91586 0 7.5C0 11.0841 2.91586 14 6.5 14C10.0841 14 13 11.0841 13 7.5C13 3.91586 10.0841 1 6.5 1ZM6.5 13.0714C3.42781 13.0714 0.92856 10.5722 0.92856 7.5C0.92856 4.42781 3.42781 1.92856 6.5 1.92856C9.57219 1.92856 12.0714 4.42781 12.0714 7.5C12.0714 10.5722 9.57219 13.0714 6.5 13.0714Z" fill="#23C967"/>
</svg>
