<svg width="11" height="15" viewBox="0 0 11 15" fill="none" xmlns="http://www.w3.org/2000/svg">
<g clip-path="url(#clip0)">
<path d="M9.78094 9.22247C9.63507 9.04746 9.45806 8.96001 9.24963 8.96001H8.99978V7.15991C8.99978 6.00993 8.65612 5.02252 7.96859 4.19752C7.28111 3.37248 6.45835 2.95996 5.4999 2.95996C4.54147 2.95996 3.71855 3.37248 3.03112 4.19748C2.34359 5.02252 1.99994 6.0099 1.99994 7.15991V8.96001H1.74997C1.54171 8.96001 1.36459 9.04746 1.21874 9.22247C1.0729 9.39736 1 9.6099 1 9.86005V15.26C1 15.5099 1.07292 15.7225 1.21874 15.8976C1.36459 16.0724 1.54171 16.16 1.74997 16.16H9.24982C9.45825 16.16 9.63523 16.0725 9.78114 15.8976C9.92685 15.7225 9.99988 15.5099 9.99988 15.26V9.85995C9.99999 9.61 9.92685 9.39749 9.78094 9.22247ZM7.49986 8.96001H3.49994V7.15991C3.49994 6.49745 3.69529 5.93178 4.0859 5.46311C4.47656 4.99438 4.94787 4.76006 5.49998 4.76006C6.05214 4.76006 6.52334 4.99435 6.91403 5.46311C7.30454 5.93175 7.49986 6.49745 7.49986 7.15991V8.96001Z" fill="#AFB4CC"/>
</g>
<defs>
<clipPath id="clip0">
<rect width="11" height="13.2" fill="white" transform="translate(0 0.959961)"/>
</clipPath>
</defs>
</svg>
